<?xml version="1.0" encoding="UTF-8"?>
<!-- Generated by Pixelmator Pro 3.8 -->
<svg width="1254" height="1254" viewBox="0 0 1254 1254" xmlns="http://www.w3.org/2000/svg">
    <path id="Oval" fill="#ffffff" fill-rule="evenodd" stroke="#014320" stroke-width="3" stroke-linecap="round" stroke-linejoin="round" d="M 1254 627 C 1254 280.717468 973.282532 0 627 0 C 280.717468 0 0 280.717468 0 627 C 0 973.282532 280.717468 1254 627 1254 C 973.282532 1254 1254 973.282532 1254 627 Z"/>
    <path id="Path" fill="#01421f" fill-rule="evenodd" stroke="none" d="M 209 714 C 209 714 168.972488 680.586731 162 658 C 155.027512 635.413269 149.549545 619.381165 149 602 C 148.450455 584.618835 147.029327 551.269165 172 518 C 203.890091 475.511902 250.192657 451.178162 290 452 C 329.807343 452.821838 335.047302 447.458557 385 463 C 434.614288 478.436157 437 485 437 485 L 424 514 L 375 495 C 375 495 329.463776 484.760559 305 484 C 280.536224 483.239441 233 504 233 504 C 233 504 202.24791 525.694031 188 563 C 173.75209 600.305969 193 643 193 643 C 193 643 204.951859 670.226379 224 684 C 243.048141 697.773621 261 704 261 704 C 261 704 238.645157 725.946411 230 745 C 221.354843 764.053589 221 797 221 797 C 221 797 224.092422 832.47998 235 848 C 245.907578 863.52002 250.136917 870.32959 262 879 C 273.863068 887.67041 267.480988 884.096924 295 898 C 322.519012 911.903076 379.31073 900.468628 402 888 C 424.68927 875.531372 472.150482 833.509399 495 800 C 517.849548 766.490601 514 771 514 771 L 542 786 L 520 820 C 520 820 498.380035 851.912109 486 863 C 473.619965 874.087891 441.320251 913.254883 397 927 C 352.679749 940.745117 359.776062 938.332458 324 940 C 288.223938 941.667542 238 906 238 906 C 238 906 207.049164 883.933533 198 850 C 188.950836 816.066467 192.55217 837.503174 188 794 C 183.44783 750.496826 209 714 209 714 Z"/>
    <path id="path1" fill="#024521" fill-rule="evenodd" stroke="none" d="M 462 448 C 462 448 464.406433 442.512268 472 435 C 479.593567 427.487732 484 424 484 424 C 484 424 445.268127 376.679382 434 336 C 422.731873 295.320618 426.16629 232.098206 476 203 C 525.83374 173.901855 553.72821 188.794678 571 195 C 588.27179 201.205322 610 225 610 225 L 626 251 L 635 235 C 635 235 659.375488 187.204468 720 186 C 780.624512 184.795532 807 235 807 235 C 807 235 824.868164 265.811462 823 297 C 821.131836 328.188538 805 366 805 366 C 805 366 797.209534 381.958435 792 390 C 786.790466 398.041565 768 424 768 424 C 768 424 773.205261 428.083435 780 436 C 786.794739 443.916565 790 448 790 448 L 808 425 C 808 425 830.731323 396.726135 842 363 C 853.268677 329.273865 855.217834 327.631775 857 296 C 859.156494 257.723755 853.000244 239.046204 831 202 C 825.355408 192.495117 798.089294 159.552002 741 154 C 683.910706 148.447998 647 177 647 177 L 639 182 L 632 188 L 626 194 L 615 184 C 615 184 585.282959 156.307983 533 153 C 480.717041 149.692017 446 182 446 182 C 446 182 416.956512 201.362793 400 254 C 383.043488 306.637268 410 367 410 367 L 427 401 L 442 423 L 454 439 L 462 448 Z"/>
    <path id="path2" fill="#024521" fill-rule="evenodd" stroke="none" d="M 815 486 C 815 486 819.780029 494.850708 822 500 C 824.219971 505.149292 827 515 827 515 C 827 515 884.917603 483.853455 944 484 C 1003.082397 484.146545 1037.469482 517.339722 1048 532 C 1058.530518 546.660278 1069.548706 572.851257 1069 596 C 1068.451294 619.148743 1059.943115 641.418823 1051 657 C 1042.056885 672.581177 1012 693 1012 693 L 1001 699 L 989 704 L 994 709 C 994 709 1029.270874 736.453918 1030 793 C 1030.729126 849.546143 988 880 988 880 C 988 880 963.228088 903.098267 917 905 C 870.771912 906.901733 818 866 818 866 C 818 866 775.093506 826.945435 760 802 C 744.906494 777.054565 739 770 739 770 C 739 770 735.847351 772.353943 727 777 C 718.152649 781.646057 710 785 710 785 L 723 807 C 723 807 762.167236 863.466919 779 877 C 795.832764 890.533081 827.933533 918.741882 861 929 C 894.066467 939.258118 920 939 920 939 C 920 939 951.629211 938.471069 976 928 C 1000.370789 917.528931 1028.918701 895.997925 1047 865 C 1065.081299 834.002075 1064 782 1064 782 C 1064 782 1061.611572 759.458984 1058 748 C 1054.388428 736.541077 1043 714 1043 714 L 1054 705 C 1054 705 1074.114014 685.676208 1083 670 C 1091.885986 654.323792 1096.480469 639.569153 1102 619 C 1107.519531 598.430847 1098.191406 548.680359 1090 533 C 1081.808594 517.319641 1068.852539 496.655151 1039 476 C 1009.147461 455.344849 972.429321 451.852905 944 450 C 915.570679 448.147095 870.631104 460.102783 845 472 C 819.368896 483.897217 815 486 815 486 Z"/>
    <path id="path3" fill="#024521" fill-rule="evenodd" stroke="none" d="M 453 562 L 431 565 C 431 565 431.100861 503.772034 487 448 C 542.89917 392.227966 602 389 602 389 L 598 410 C 598 410 547.289673 417.650269 503 462 C 458.710327 506.349731 453 562 453 562 Z"/>
    <path id="path4" fill="#01421f" fill-rule="evenodd" stroke="none" d="M 651 388 L 654 411 C 654 411 719.870056 426.324158 757 469 C 794.129944 511.675842 799 559 799 559 L 822 565 C 822 565 821.207642 500.766968 770 450 C 718.792358 399.233032 651 388 651 388 Z"/>
    <path id="path5" fill="#01421f" fill-rule="evenodd" stroke="none" d="M 800 618 L 822 613 C 822 613 815.461365 674.252502 772 724 C 728.538635 773.747498 651 786 651 786 L 654 763 C 654 763 713.383301 755.328003 754 708 C 794.616699 660.672058 800 618 800 618 Z"/>
    <path id="path6" fill="#01421f" fill-rule="evenodd" stroke="none" d="M 454 617 L 431 614 C 431 614 433.949615 676.814636 486 728 C 538.050415 779.185303 602 786 602 786 L 600 763 C 600 763 545.041382 753.54364 504 714 C 462.958588 674.45636 454 617 454 617 Z"/>
    <path id="path7" fill="#01421f" fill-rule="evenodd" stroke="none" d="M 627 891 L 643 797 C 643 797 648.829529 875.427856 648 895 C 647.170471 914.572144 642.709412 979.048462 635 1000 C 627.290588 1020.951477 619.541199 1049.673828 607 1069 C 594.458801 1088.326172 587 1101 587 1101 C 587 1101 579.519104 1087.229614 565 1081 C 550.480896 1074.770386 543.686279 1073.96106 535 1073 C 526.313721 1072.03894 527 1074 527 1074 C 527 1074 575.416382 1032.60144 589 985 C 602.583618 937.39856 606.862305 934.225952 612 884 C 617.137695 833.774048 613 820 613 820 L 627 891 Z"/>
    <path id="path8" fill="#c2ab62" fill-rule="evenodd" stroke="none" d="M 626 292 L 593 548 L 622 579 L 626 292 Z"/>
    <path id="path9" fill="#c2ab62" fill-rule="evenodd" stroke="none" d="M 523 481 L 580 539 L 584 519 L 523 481 Z"/>
    <path id="path10" fill="#c2ab62" fill-rule="evenodd" stroke="none" d="M 621 593 L 337 591 L 588 624 L 621 593 Z"/>
    <path id="path11" fill="#c2ab62" fill-rule="evenodd" stroke="none" d="M 560 634 L 524 694 L 580 637 L 560 634 Z"/>
    <path id="path12" fill="#c2ab62" fill-rule="evenodd" stroke="none" d="M 627 866 L 662 630 L 631 597 L 627 866 Z"/>
    <path id="path13" fill="#c2ab62" fill-rule="evenodd" stroke="none" d="M 674 540 L 729 482 L 693 541 L 674 540 Z"/>
    <path id="path14" fill="#c2ab62" fill-rule="evenodd" stroke="none" d="M 674 637 L 671 657 L 730 693 L 674 637 Z"/>
    <path id="path15" fill="#c2ab62" fill-rule="evenodd" stroke="none" d="M 633 586 L 667 552 L 916 587 L 633 586 Z"/>
    <path id="path16" fill="#01421f" fill-rule="evenodd" stroke="none" d="M 592 629 L 624 596 L 627 866 L 592 629 Z"/>
    <path id="path17" fill="#01421f" fill-rule="evenodd" stroke="none" d="M 674 637 L 731 694 L 694 633 L 674 637 Z"/>
    <path id="path18" fill="#01421f" fill-rule="evenodd" stroke="none" d="M 633 592 L 667 626 L 918 588 L 633 592 Z"/>
    <path id="path19" fill="#01421f" fill-rule="evenodd" stroke="none" d="M 581 636 L 523 696 L 584 658 L 581 636 Z"/>
    <path id="path20" fill="#01421f" fill-rule="evenodd" stroke="none" d="M 623 587 L 587 551 L 335 590 L 623 587 Z"/>
    <path id="path21" fill="#01421f" fill-rule="evenodd" stroke="none" d="M 581 541 L 522 480 L 559 544 L 581 541 Z"/>
    <path id="path22" fill="#01421f" fill-rule="evenodd" stroke="none" d="M 630 583 L 627 292 L 664 549 L 630 583 Z"/>
    <path id="path23" fill="#01421f" fill-rule="evenodd" stroke="none" d="M 673 540 L 669 518 L 731 480 L 673 540 Z"/>
</svg>
